<?xml version="1.0" encoding="UTF-8" standalone="no"?>
<!-- Copyright 2000-2022 JetBrains s.r.o. and contributors. Use of this source code is governed by the Apache 2.0 license. -->

<svg
   width="16"
   height="16"
   viewBox="0 0 16 16"
   fill="none"
   version="1.1"
   id="svg4"
   xml:space="preserve"
   xmlns="http://www.w3.org/2000/svg"><defs
     id="defs4" /><path
     fill-rule="evenodd"
     clip-rule="evenodd"
     d="m 9.1425891,6.6608197 h 1.3711059 c 0.252421,0 0.457036,0.204624 0.457036,0.457036 v 2.7422151 c 0,0.2524212 -0.204615,0.4570362 -0.457036,0.4570362 H 5.4863045 c -0.2524116,0 -0.4570355,-0.204615 -0.4570355,-0.4570362 V 6.2037837 c 0,-0.252411 0.2046239,-0.457035 0.4570355,-0.457035 h 1.3711066 v -0.457036 c 0,-0.252411 0.204624,-0.457035 0.4570357,-0.457035 h 1.3711067 c 0.2524207,0 0.4570356,0.204624 0.4570356,0.457035 z M 8.6855534,5.2897127 H 7.3144468 v 4.5703581 h 1.3711067 z m 0.4570356,1.828143 v 2.7422151 h 1.371106 V 7.1178557 Z M 6.8574111,6.2037837 V 9.8600708 H 5.4863045 V 6.2037837 Z"
     fill="#6c707e"
     id="path1"
     style="stroke-width:0.457036" /><path
     fill-rule="evenodd"
     clip-rule="evenodd"
     d="m 5.5533832,4.4697562 c 0.20701,0.25876 0.16505,0.63633 -0.0937,0.84334 l -3.35862,2.6869 3.35862,2.6868708 c 0.25875,0.207 0.30071,0.5846 0.0937,0.8434 -0.207,0.2587 -0.58458,0.3007 -0.84334,0.0937 l -3.94426804,-3.1554508 -0.585651,-0.46852 0.585651,-0.46853 3.94426804,-3.15541 c 0.25876,-0.20701 0.63634,-0.16506 0.84334,0.0937 z"
     fill="#e66d17"
     id="path1-3"
     style="fill:#c77d55;fill-opacity:1" /><path
     fill-rule="evenodd"
     clip-rule="evenodd"
     d="m 10.401341,11.530256 c -0.207,-0.2588 -0.165,-0.6364 0.0937,-0.8434 l 3.3586,-2.6868492 -3.3586,-2.6869 c -0.2587,-0.20701 -0.3007,-0.58458 -0.0937,-0.84334 0.207,-0.25876 0.5846,-0.30071 0.8433,-0.0937 l 3.9443,3.15541 0.5857,0.46853 -0.5857,0.46852 -3.9443,3.1554292 c -0.2587,0.207 -0.6363,0.165 -0.8433,-0.0937 z"
     fill="#e66d17"
     id="path1-6"
     style="fill:#c77d55;fill-opacity:1" /></svg>
